<svg width="371" height="280" viewBox="0 0 371 280" fill="none" xmlns="http://www.w3.org/2000/svg">
<circle cx="185.5" cy="140.5" r="131.5" fill="#ECFF00"/>
<g clip-path="url(#clip0_1_2)">
<path d="M259.408 67.0141C252.885 60.5281 243.761 56.8637 232.841 56.1674L232.804 56.1308L232.767 56.1674C227.564 55.8376 221.957 56.2041 216.058 57.3034C200.008 60.2349 183.774 68.2966 173.697 78.3371C163.657 88.3409 157.098 102.705 155.668 117.656C155.632 118.206 155.558 118.755 155.522 119.268L154.679 129.455C153.323 144.443 149.695 158.991 143.979 172.622V172.659L140.974 180.134L138.446 177.642C137.933 177.129 137.236 176.836 136.504 176.836C135.771 176.836 135.074 177.129 134.561 177.642L101.802 210.732C100.739 211.795 100.739 213.48 101.765 214.58L110.853 224.107C111.366 224.657 112.062 224.95 112.795 224.95H112.832C113.564 224.95 114.261 224.657 114.774 224.144L147.973 191.054C148.486 190.541 148.779 189.845 148.779 189.112C148.779 188.379 148.486 187.683 147.973 187.17L145.481 184.715L155.632 180.83C155.632 180.83 155.668 180.83 155.668 180.794C167.907 175.81 181.026 172.292 193.595 170.533L196.673 170.24C198.505 170.424 200.337 170.497 202.243 170.497C202.353 170.497 202.463 170.497 202.609 170.497C219.282 170.387 236.468 163.351 247.535 152.065C260.654 139.276 269.888 116.667 269.998 97.0988C270.108 84.42 266.407 74.0131 259.408 67.0141ZM112.905 218.317L107.591 212.747L136.504 183.505L142.147 189.148L112.905 218.317ZM264.208 90.9787L250.393 104.757L237.678 92.078L257.136 72.6933C261.643 78.1533 263.548 84.8958 264.208 90.9787ZM175.603 120.88L186.962 109.557L199.678 122.236L188.318 133.559L175.603 120.88ZM184.434 137.443L170.253 151.588C166.075 146.604 163.4 140.705 162.081 134.402L171.718 124.764L184.434 137.443ZM214.812 107.139L203.562 118.352L190.847 105.673L202.133 94.4232L214.812 107.139ZM206.017 90.539L217.194 79.3992L229.909 92.078L218.696 103.254L206.017 90.539ZM203.562 126.12L216.278 138.799L204.918 150.122L192.202 137.443L203.562 126.12ZM207.446 122.236L218.659 111.06L231.338 123.775L220.162 134.915L207.446 122.236ZM222.58 107.175L233.83 95.9623L246.546 108.641L235.259 119.891L222.58 107.175ZM234.746 61.92C241.782 62.6895 248.195 64.9248 253.178 68.8823L233.793 88.2304L221.078 75.5516L234.746 61.92ZM227.271 61.6268L217.194 71.6673L209.828 64.3018C215.655 62.6895 221.591 61.7368 227.271 61.6268ZM203.929 66.134L213.309 75.4783L202.133 86.6547L188.905 73.3529C193.558 70.4947 198.652 68.0395 203.929 66.134ZM177.545 82.2574C179.597 80.242 181.832 78.2999 184.287 76.5409L198.285 90.5756L186.999 101.825L172.854 87.7174C174.284 85.7386 175.859 83.9064 177.545 82.2574ZM169.703 92.3712L183.078 105.71L171.718 116.996L162.997 108.311C164.5 102.668 166.772 97.2448 169.703 92.3712ZM161.678 114.761L167.834 120.88L161.092 127.623C160.799 123.372 160.982 119.048 161.678 114.761ZM153.653 175.7L147.717 177.972L148.999 174.784C153.396 164.34 156.548 153.42 158.49 142.17C160.652 147.997 163.877 153.164 168.127 157.524C168.127 157.524 168.127 157.524 168.164 157.561C172.195 161.592 177.105 164.743 182.565 166.942C172.854 168.921 162.997 171.889 153.653 175.7ZM191.176 163.79C184.617 162.325 178.791 159.503 174.1 155.472L188.318 141.291L201.034 153.97L191.176 163.79ZM202.609 165C201.034 165 199.458 164.963 197.919 164.816L204.918 157.854L211.367 164.267C208.472 164.743 205.541 165 202.609 165ZM217.78 162.911L208.839 154.006L220.162 142.683L233.647 156.132C228.81 159.1 223.387 161.409 217.78 162.911ZM243.724 148.18L243.687 148.217C242.038 149.902 240.206 151.478 238.264 152.98L224.046 138.799L235.223 127.659L249.294 141.767C247.535 144.113 245.666 146.238 243.724 148.18ZM252.445 137.15L239.107 123.775L250.393 112.525L259.811 121.906C257.869 127.293 255.34 132.496 252.445 137.15ZM254.277 108.641L264.464 98.4541C264.281 104.207 263.329 110.18 261.68 116.007L254.277 108.641Z" fill="black"/>
</g>
<defs>
<clipPath id="clip0_1_2">
<rect width="169" height="169" fill="white" transform="translate(101 56)"/>
</clipPath>
</defs>
</svg>
